{
    "asset" : {
        "generator" : "Khronos glTF Blender I/O v0.9.36",
        "version" : "2.0"
    },
    "scene" : 0,
    "scenes" : [
        {
            "name" : "Scene",
            "nodes" : [
                0
            ]
        }
    ],
    "nodes" : [
        {
            "mesh" : 0,
            "name" : "lamp",
            "translation" : [
                -12,
                0,
                0
            ]
        }
    ],
    "meshes" : [
        {
            "name" : "Cube.003",
            "primitives" : [
                {
                    "attributes" : {
                        "POSITION" : 0,
                        "NORMAL" : 1
                    },
                    "indices" : 2
                }
            ]
        }
    ],
    "accessors" : [
        {
            "bufferView" : 0,
            "componentType" : 5126,
            "count" : 1256,
            "max" : [
                26,
                5,
                13.999999046325684
            ],
            "min" : [
                -2,
                -7.977437496185303,
                -14.000000953674316
            ],
            "type" : "VEC3"
        },
        {
            "bufferView" : 1,
            "componentType" : 5126,
            "count" : 1256,
            "type" : "VEC3"
        },
        {
            "bufferView" : 2,
            "componentType" : 5123,
            "count" : 2004,
            "type" : "SCALAR"
        }
    ],
    "bufferViews" : [
        {
            "buffer" : 0,
            "byteLength" : 15072,
            "byteOffset" : 0
        },
        {
            "buffer" : 0,
            "byteLength" : 15072,
            "byteOffset" : 15072
        },
        {
            "buffer" : 0,
            "byteLength" : 4008,
            "byteOffset" : 30144
        }
    ],
    "buffers" : [
        {
            "byteLength" : 34152,
            "uri" : "data:application/octet-stream;base64,"
        }
    ]
}
