{
    "asset" : {
        "generator" : "Khronos glTF Blender I/O v1.1.45",
        "version" : "2.0"
    },
    "scene" : 0,
    "scenes" : [
        {
            "name" : "Scene",
            "nodes" : [
                0
            ]
        }
    ],
    "nodes" : [
        {
            "mesh" : 0,
            "name" : "buggy",
            "translation" : [
                0,
                -0.5958372950553894,
                0
            ]
        }
    ],
    "materials" : [
        {
            "doubleSided" : true,
            "emissiveFactor" : [
                0,
                0,
                0
            ],
            "name" : "buggy.material",
            "pbrMetallicRoughness" : {
                "baseColorTexture" : {
                    "index" : 0,
                    "texCoord" : 0
                },
                "metallicFactor" : 0,
                "roughnessFactor" : 0.5
            }
        }
    ],
    "meshes" : [
        {
            "name" : "Cube.002",
            "primitives" : [
                {
                    "attributes" : {
                        "POSITION" : 0,
                        "NORMAL" : 1,
                        "TEXCOORD_0" : 2
                    },
                    "indices" : 3,
                    "material" : 0
                }
            ]
        }
    ],
    "textures" : [
        {
            "source" : 0
        }
    ],
    "images" : [
        {
            "bufferView" : 4,
            "mimeType" : "image/png",
            "name" : "buggy.texture.001"
        }
    ],
    "accessors" : [
        {
            "bufferView" : 0,
            "componentType" : 5126,
            "count" : 7128,
            "max" : [
                1,
                1.5700000524520874,
                2.0176608562469482
            ],
            "min" : [
                -1,
                -0.06577508896589279,
                -2.0288662910461426
            ],
            "type" : "VEC3"
        },
        {
            "bufferView" : 1,
            "componentType" : 5126,
            "count" : 7128,
            "type" : "VEC3"
        },
        {
            "bufferView" : 2,
            "componentType" : 5126,
            "count" : 7128,
            "type" : "VEC2"
        },
        {
            "bufferView" : 3,
            "componentType" : 5123,
            "count" : 12093,
            "type" : "SCALAR"
        }
    ],
    "bufferViews" : [
        {
            "buffer" : 0,
            "byteLength" : 85536,
            "byteOffset" : 0
        },
        {
            "buffer" : 0,
            "byteLength" : 85536,
            "byteOffset" : 85536
        },
        {
            "buffer" : 0,
            "byteLength" : 57024,
            "byteOffset" : 171072
        },
        {
            "buffer" : 0,
            "byteLength" : 24186,
            "byteOffset" : 228096
        },
        {
            "buffer" : 0,
            "byteLength" : 7440,
            "byteOffset" : 252284
        }
    ],
    "buffers" : [
        {
            "byteLength" : 259724,
            "uri" : "data:application/octet-stream;base64,"
        }
    ]
}
