# Created by Kenney (www.kenney.nl)

mtllib lamp.mtl

g mergedBlocks

v -0.04309988 0.2445543 0.04309988
v 0.04309988 0.2445543 0.04309988
v -0.04309988 0 0.04309988
v 0.04309988 0 0.04309988
v 0.04309988 0 -0.04309988
v 0.04309988 0.2445543 -0.04309988
v -0.04309988 0.2445543 -0.04309988
v -0.04309988 0 -0.04309988
v -0.0230999 0.2445543 0.0230999
v 0.0230999 0.2445543 0.0230999
v 0.0230999 0.2445543 -0.0230999
v -0.0230999 0.2445543 -0.0230999
v -0.0230999 0.9138001 -0.08909989
v -0.0230999 0.96 -0.08909989
v -0.0230999 0.9138001 -0.0230999
v -0.0230999 0.96 -0.0230999
v -0.0230999 0.9138001 0.0230999
v -0.0230999 0.9369 0.01691031
v -0.0230999 0.9538105 0
v 0.0230999 0.9138001 0.0230999
v 0.0230999 0.9369 0.01691031
v 0.0230999 0.9538105 0
v 0.0230999 0.9138001 -0.0230999
v 0.0230999 0.96 -0.0230999
v 0.0230999 0.9138001 -0.08909989
v 0.0230999 0.96 -0.08909989
v 0.03464985 0.96 -0.2046001
v 0 0.96 -0.2211001
v 0.03464985 0.9138001 -0.2046001
v 0 0.9138001 -0.2211001
v -0.03464985 0.96 -0.2046001
v -0.03464985 0.9138001 -0.2046001
v -0.03464985 0.96 -0.1551001
v -0.03464985 0.9138001 -0.1551001
v 0.03464985 0.9138001 -0.1551001
v 0.03464985 0.96 -0.1551001

vn 0 0 1
vn 1 0 0
vn -1 0 0
vn 0 1 0
vn 0 0 -1
vn 0.8455572 0 -0.5338851
vn -0.8455572 0 -0.5338851
vn -0.9850305 0 0.1723803
vn -0.9962506 0 0.08651455
vn 0.9962506 0 0.08651455
vn 0 -1 0
vn 0.9850305 0 0.1723803
vn 0 0.258819 0.9659258
vn 0 0.5 0.8660254
vn 0 0.8660254 0.5
vn 0 0.9659258 0.258819

vt -0.04309988 0.2445543
vt 0.04309988 0.2445543
vt -0.04309988 0
vt 0.04309988 0
vt 0.04309988 -0.04309988
vt 0.0230999 0.0230999
vt 0.04309988 0.04309988
vt -0.0230999 0.0230999
vt -0.04309988 0.04309988
vt -0.0230999 -0.0230999
vt 0.0230999 -0.0230999
vt -0.04309988 -0.04309988
vt -0.08909989 0.9138001
vt -0.08909989 0.96
vt -0.0230999 0.9138001
vt -0.0230999 0.96
vt 0.0230999 0.9138001
vt 0.0230999 0.2445543
vt 0.01691031 0.9369
vt 0 0.9538105
vt -0.0230999 0.2445543
vt -0.01691031 0.9369
vt 0.0230999 0.96
vt 0.08909989 0.9138001
vt 0.08909989 0.96
vt -0.03464985 0.96
vt 0 0.96
vt -0.03464985 0.9138001
vt 0 0.9138001
vt 0.03464985 0.96
vt 0.03464985 0.9138001
vt -0.1551001 0.96
vt -0.1551001 0.9138001
vt -0.2046001 0.96
vt -0.2046001 0.9138001
vt 0.1551001 0.9138001
vt 0.1551001 0.96
vt 0.2046001 0.9138001
vt 0.2046001 0.96
vt -0.0230999 0.08909989
vt 0.0230999 0.08909989
vt 0.03464985 0.1551001
vt 0.03464985 0.2046001
vt 0 0.2211001
vt -0.03464985 0.2046001
vt -0.03464985 0.1551001
vt -0.03464985 -0.2046001
vt -0.03464985 -0.1551001
vt 0 -0.2211001
vt -0.0230999 -0.08909989
vt 0.0230999 -0.08909989
vt 0.03464985 -0.1551001
vt 0.03464985 -0.2046001
vt 0.0230999 0.9369
vt -0.0230999 0.9369
vt -0.0230999 0.9538105
vt 0.0230999 0.9538105
vt 0.0230999 0
vt -0.0230999 0

usemtl roof(Clone)

f 3/3/1 2/2/1 1/1/1
f 2/2/1 3/3/1 4/4/1
f 5/4/2 2/1/2 4/3/2
f 2/1/2 5/4/2 6/2/2
f 7/1/3 3/4/3 1/2/3
f 3/4/3 7/1/3 8/3/3
f 1/7/4 9/6/4 7/5/4
f 1/7/4 10/8/4 9/6/4
f 2/9/4 10/8/4 1/7/4
f 10/8/4 2/9/4 11/10/4
f 12/11/4 7/5/4 9/6/4
f 11/10/4 7/5/4 12/11/4
f 11/10/4 6/12/4 7/5/4
f 6/12/4 11/10/4 2/9/4
f 5/3/5 7/2/5 6/1/5
f 7/2/5 5/3/5 8/4/5
f 15/15/3 14/14/3 13/13/3
f 14/14/3 15/15/3 16/16/3
f 18/19/3 9/18/3 17/17/3
f 19/20/3 9/18/3 18/19/3
f 16/16/3 9/18/3 19/20/3
f 15/15/3 9/18/3 16/16/3
f 9/18/3 15/15/3 12/21/3
f 10/21/2 21/22/2 20/15/2
f 10/21/2 22/20/2 21/22/2
f 11/18/2 22/20/2 10/21/2
f 23/17/2 22/20/2 11/18/2
f 23/17/2 24/23/2 22/20/2
f 25/24/2 24/23/2 23/17/2
f 24/23/2 25/24/2 26/25/2
f 29/28/6 28/27/5 27/26/6
f 28/27/5 29/28/6 30/29/5
f 30/29/5 31/30/7 28/27/5
f 31/30/7 30/29/5 32/31/7
f 33/32/9 13/13/8 14/14/8
f 13/13/8 33/32/9 34/33/9
f 31/34/7 34/33/9 33/32/9
f 34/33/9 31/34/7 32/35/7
f 29/38/6 36/37/10 35/36/10
f 36/37/10 29/38/6 27/39/6
f 5/9/11 3/5/11 8/7/11
f 3/5/11 5/9/11 4/12/11
f 11/21/5 15/17/5 23/15/5
f 15/17/5 11/21/5 12/18/5
f 9/21/1 20/17/1 17/15/1
f 20/17/1 9/21/1 10/18/1
f 15/6/11 25/40/11 23/8/11
f 25/40/11 15/6/11 13/41/11
f 32/43/11 13/41/11 34/42/11
f 30/44/11 13/41/11 32/43/11
f 30/44/11 25/40/11 13/41/11
f 29/45/11 25/40/11 30/44/11
f 25/40/11 29/45/11 35/46/11
f 35/36/10 26/25/12 25/24/12
f 26/25/12 35/36/10 36/37/10
f 28/49/4 36/48/4 27/47/4
f 36/48/4 28/49/4 26/50/4
f 26/50/4 28/49/4 24/10/4
f 24/10/4 28/49/4 16/11/4
f 16/11/4 28/49/4 14/51/4
f 14/51/4 31/53/4 33/52/4
f 31/53/4 14/51/4 28/49/4
f 21/54/14 17/15/13 20/17/13
f 17/15/13 21/54/14 18/55/14
f 21/54/14 19/56/15 18/55/14
f 19/56/15 21/54/14 22/57/15
f 22/59/15 16/11/16 19/58/15
f 16/11/16 22/59/15 24/10/16

