{
	"accessors" : 
	[
		{
			"bufferView" : 2,
			"byteOffset" : 0,
			"componentType" : 5126,
			"count" : 1442,
			"max" : 
			[
				1,
				1,
				1,
				1
			],
			"min" : 
			[
				0.3488648533821106,
				0.05284162983298302,
				0,
				1
			],
			"name" : "accessor_color_m0-PolyPaper13_-399688",
			"type" : "VEC4"
		},
		{
			"bufferView" : 2,
			"byteOffset" : 23072,
			"componentType" : 5126,
			"count" : 9890,
			"max" : 
			[
				1,
				1,
				1,
				1
			],
			"min" : 
			[
				0.006584956776350737,
				0.006584956776350737,
				0.006584956776350737,
				1
			],
			"name" : "accessor_color_m1-PolyPaper22_-399686",
			"type" : "VEC4"
		},
		{
			"bufferView" : 2,
			"byteOffset" : 181312,
			"componentType" : 5126,
			"count" : 816,
			"max" : 
			[
				1,
				1,
				1,
				1
			],
			"min" : 
			[
				1,
				1,
				1,
				1
			],
			"name" : "accessor_color_m2-PolyGem25_-368206",
			"type" : "VEC4"
		},
		{
			"bufferView" : 0,
			"byteOffset" : 0,
			"componentType" : 5123,
			"count" : 2076,
			"max" : 
			[
				1441
			],
			"min" : 
			[
				0
			],
			"name" : "accessor_indices_0_m0-PolyPaper13_-399688",
			"type" : "SCALAR"
		},
		{
			"bufferView" : 0,
			"byteOffset" : 4152,
			"componentType" : 5123,
			"count" : 13908,
			"max" : 
			[
				9889
			],
			"min" : 
			[
				0
			],
			"name" : "accessor_indices_0_m1-PolyPaper22_-399686",
			"type" : "SCALAR"
		},
		{
			"bufferView" : 0,
			"byteOffset" : 31968,
			"componentType" : 5123,
			"count" : 1152,
			"max" : 
			[
				815
			],
			"min" : 
			[
				0
			],
			"name" : "accessor_indices_0_m2-PolyGem25_-368206",
			"type" : "SCALAR"
		},
		{
			"bufferView" : 1,
			"byteOffset" : 17304,
			"componentType" : 5126,
			"count" : 1442,
			"max" : 
			[
				1,
				1,
				1
			],
			"min" : 
			[
				-1,
				-1,
				-1
			],
			"name" : "accessor_normal_m0-PolyPaper13_-399688",
			"type" : "VEC3"
		},
		{
			"bufferView" : 1,
			"byteOffset" : 153288,
			"componentType" : 5126,
			"count" : 9890,
			"max" : 
			[
				1,
				1,
				1
			],
			"min" : 
			[
				-1,
				-1,
				-1
			],
			"name" : "accessor_normal_m1-PolyPaper22_-399686",
			"type" : "VEC3"
		},
		{
			"bufferView" : 1,
			"byteOffset" : 281760,
			"componentType" : 5126,
			"count" : 816,
			"max" : 
			[
				0.9659259,
				0.965926,
				0.9837434
			],
			"min" : 
			[
				-0.9659259,
				-0.9659259,
				-0.9837434
			],
			"name" : "accessor_normal_m2-PolyGem25_-368206",
			"type" : "VEC3"
		},
		{
			"bufferView" : 1,
			"byteOffset" : 0,
			"componentType" : 5126,
			"count" : 1442,
			"max" : 
			[
				1.388138,
				1.681777,
				1.63732
			],
			"min" : 
			[
				0.5836284,
				1.307441,
				0.5500271
			],
			"name" : "accessor_position_m0-PolyPaper13_-399688",
			"type" : "VEC3"
		},
		{
			"bufferView" : 1,
			"byteOffset" : 34608,
			"componentType" : 5126,
			"count" : 9890,
			"max" : 
			[
				1.494339,
				2.220024,
				1.959962
			],
			"min" : 
			[
				0.4112684,
				1.251211,
				0.4600165
			],
			"name" : "accessor_position_m1-PolyPaper22_-399686",
			"type" : "VEC3"
		},
		{
			"bufferView" : 1,
			"byteOffset" : 271968,
			"componentType" : 5126,
			"count" : 816,
			"max" : 
			[
				1.228153,
				1.589443,
				0.6076124000000001
			],
			"min" : 
			[
				0.6829539999999999,
				1.514233,
				0.5112619
			],
			"name" : "accessor_position_m2-PolyGem25_-368206",
			"type" : "VEC3"
		}
	],
	"asset" : 
	{
		"copyright" : "Unknown",
		"generator" : "glTF 1-to-2 Upgrader for Google Blocks",
		"version" : "2.0"
	},
	"bufferViews" : 
	[
		{
			"buffer" : 0,
			"byteLength" : 34272,
			"byteOffset" : 0,
			"name" : "ushortBufferView",
			"target" : 34963
		},
		{
			"buffer" : 0,
			"byteLength" : 291552,
			"byteOffset" : 34272,
			"byteStride" : 12,
			"name" : "vec3BufferView",
			"target" : 34962
		},
		{
			"buffer" : 0,
			"byteLength" : 194368,
			"byteOffset" : 325824,
			"byteStride" : 16,
			"name" : "vec4BufferView",
			"target" : 34962
		}
	],
	"buffers" : 
	[
		{
			"byteLength" : 520192,
			"name" : "model",
			"uri" : "model.bin"
		}
	],
	"materials" : 
	[
		{
			"alphaMode" : "OPAQUE",
			"doubleSided" : false,
			"name" : "BlocksPaper",
			"pbrMetallicRoughness" : 
			{
				"baseColorFactor" : 
				[
					1,
					1,
					1,
					1
				],
				"metallicFactor" : 0,
				"roughnessFactor" : 0.6
			}
		},
		{
			"alphaMode" : "BLEND",
			"doubleSided" : false,
			"name" : "BlocksGlass",
			"pbrMetallicRoughness" : 
			{
				"baseColorFactor" : 
				[
					0.2,
					0.2,
					1,
					0.3
				],
				"metallicFactor" : 1,
				"roughnessFactor" : 0.4
			}
		},
		{
			"alphaMode" : "OPAQUE",
			"doubleSided" : true,
			"name" : "BlocksGem",
			"pbrMetallicRoughness" : 
			{
				"baseColorFactor" : 
				[
					1,
					0.4,
					1,
					1
				],
				"metallicFactor" : 0,
				"roughnessFactor" : 0.1
			}
		}
	],
	"meshes" : 
	[
		{
			"name" : "mesh_m0-PolyPaper13_-399688",
			"primitives" : 
			[
				{
					"attributes" : 
					{
						"COLOR_0" : 0,
						"NORMAL" : 6,
						"POSITION" : 9
					},
					"indices" : 3,
					"material" : 0,
					"mode" : 4
				}
			]
		},
		{
			"name" : "mesh_m1-PolyPaper22_-399686",
			"primitives" : 
			[
				{
					"attributes" : 
					{
						"COLOR_0" : 1,
						"NORMAL" : 7,
						"POSITION" : 10
					},
					"indices" : 4,
					"material" : 0,
					"mode" : 4
				}
			]
		},
		{
			"name" : "mesh_m2-PolyGem25_-368206",
			"primitives" : 
			[
				{
					"attributes" : 
					{
						"COLOR_0" : 2,
						"NORMAL" : 8,
						"POSITION" : 11
					},
					"indices" : 5,
					"material" : 2,
					"mode" : 4
				}
			]
		}
	],
	"nodes" : 
	[
		{
			"matrix" : 
			[
				1,
				0,
				0,
				0,
				0,
				1,
				0,
				0,
				0,
				0,
				1,
				0,
				0,
				0,
				0,
				1
			],
			"mesh" : 2,
			"name" : "node_MeshObject1706038272-PolyGem25"
		},
		{
			"matrix" : 
			[
				1,
				0,
				0,
				0,
				0,
				1,
				0,
				0,
				0,
				0,
				1,
				0,
				0,
				0,
				0,
				1
			],
			"mesh" : 1,
			"name" : "node_MeshObject1987191616-PolyPaper22"
		},
		{
			"matrix" : 
			[
				1,
				0,
				0,
				0,
				0,
				1,
				0,
				0,
				0,
				0,
				1,
				0,
				0,
				0,
				0,
				1
			],
			"mesh" : 0,
			"name" : "node_MeshObject223717568-PolyPaper13"
		}
	],
	"scene" : 0,
	"scenes" : 
	[
		{
			"extras" : {},
			"name" : "defaultScene",
			"nodes" : 
			[
				2,
				1,
				0
			]
		}
	]
}